# xmcd
#
# Track frame offsets: 
#        150
#        15420
#        29113
#        42894
#        57126
#        77556
#        96380
#        108775
#        125440
#        143182
#        165990
#
# Disc length: 2472 seconds
#
# Revision: 0
# Processed by: cddbd v1.5.2PL0 Copyright (c) Steve Scherf et al.
# Submitted via: ExactAudioCopy v1.3
#
DISCID=8409a60b
DTITLE=Jordan Officer - Blue Skies
DYEAR=2015
DGENRE=Blues Rock, Jazz Rock
TTITLE0=Blue Skies
TTITLE1=Got You On My Mind
TTITLE2=It's You I Love
TTITLE3=Shot Of Rhythm And Blues
TTITLE4=Chains Of Love
TTITLE5=Night Flight
TTITLE6=How Long Blues
TTITLE7=That's For Me
TTITLE8=Then She Kissed Me
TTITLE9=When The Deal Goes Down
TTITLE10=Takin' Off
EXTD=
EXTT0=
EXTT1=
EXTT2=
EXTT3=
EXTT4=
EXTT5=
EXTT6=
EXTT7=
EXTT8=
EXTT9=
EXTT10=
PLAYORDER=
